<mxfile host="app.diagrams.net" modified="2023-09-09T13:26:46.276Z" agent="Mozilla/5.0 (Windows NT 10.0; Win64; x64) AppleWebKit/537.36 (KHTML, like Gecko) Chrome/116.0.0.0 Safari/537.36" etag="n9D_ymsvkpAaxsjbJs2E" version="21.7.4" type="github">
  <diagram name="Page-1" id="XPvFYeZU_mqQ_57prnjv">
    <mxGraphModel dx="880" dy="446" grid="1" gridSize="10" guides="1" tooltips="1" connect="1" arrows="1" fold="1" page="1" pageScale="1" pageWidth="827" pageHeight="1169" math="0" shadow="0">
      <root>
        <mxCell id="0" />
        <mxCell id="1" parent="0" />
        <mxCell id="rWK_Hk4ZgVPo0p1i_7MY-11" value="&lt;font color=&quot;#000000&quot;&gt;Amazon Redshift -&amp;nbsp;User Demographics&lt;/font&gt;" style="sketch=0;outlineConnect=0;fontColor=#EEEEEE;strokeColor=#BAC8D3;fillColor=#09555B;dashed=0;verticalLabelPosition=middle;verticalAlign=bottom;align=center;html=1;whiteSpace=wrap;fontSize=10;fontStyle=1;spacing=3;shape=mxgraph.aws4.productIcon;prIcon=mxgraph.aws4.redshift;labelBackgroundColor=none;" vertex="1" parent="1">
          <mxGeometry x="750" y="640" width="100" height="150" as="geometry" />
        </mxCell>
        <mxCell id="rWK_Hk4ZgVPo0p1i_7MY-12" value="&lt;font color=&quot;#000000&quot;&gt;Amazon Redshift -&amp;nbsp;Campaigns&lt;/font&gt;" style="sketch=0;outlineConnect=0;fontColor=#EEEEEE;strokeColor=#BAC8D3;fillColor=#09555B;dashed=0;verticalLabelPosition=middle;verticalAlign=bottom;align=center;html=1;whiteSpace=wrap;fontSize=10;fontStyle=1;spacing=3;shape=mxgraph.aws4.productIcon;prIcon=mxgraph.aws4.redshift;labelBackgroundColor=none;" vertex="1" parent="1">
          <mxGeometry x="750" y="440" width="100" height="130" as="geometry" />
        </mxCell>
        <mxCell id="rWK_Hk4ZgVPo0p1i_7MY-20" style="edgeStyle=orthogonalEdgeStyle;rounded=0;orthogonalLoop=1;jettySize=auto;html=1;strokeColor=#0B4D6A;labelBackgroundColor=none;fontColor=default;" edge="1" parent="1" source="rWK_Hk4ZgVPo0p1i_7MY-13">
          <mxGeometry relative="1" as="geometry">
            <mxPoint x="300" y="120" as="targetPoint" />
          </mxGeometry>
        </mxCell>
        <mxCell id="rWK_Hk4ZgVPo0p1i_7MY-13" value="&lt;font style=&quot;&quot;&gt;&lt;font color=&quot;#000000&quot; style=&quot;font-size: 10px;&quot;&gt;Stream 1 - Ad Click Stream&lt;/font&gt;&lt;br&gt;&lt;/font&gt;" style="sketch=0;outlineConnect=0;fontColor=#EEEEEE;strokeColor=#BAC8D3;fillColor=#09555B;dashed=0;verticalLabelPosition=middle;verticalAlign=bottom;align=center;html=1;whiteSpace=wrap;fontSize=10;fontStyle=1;spacing=3;shape=mxgraph.aws4.productIcon;prIcon=mxgraph.aws4.kinesis_data_streams;labelBackgroundColor=none;" vertex="1" parent="1">
          <mxGeometry x="140" y="25" width="80" height="110" as="geometry" />
        </mxCell>
        <mxCell id="rWK_Hk4ZgVPo0p1i_7MY-21" style="edgeStyle=orthogonalEdgeStyle;rounded=0;orthogonalLoop=1;jettySize=auto;html=1;strokeColor=#0B4D6A;labelBackgroundColor=none;fontColor=default;" edge="1" parent="1" source="rWK_Hk4ZgVPo0p1i_7MY-14">
          <mxGeometry relative="1" as="geometry">
            <mxPoint x="300" y="220" as="targetPoint" />
          </mxGeometry>
        </mxCell>
        <mxCell id="rWK_Hk4ZgVPo0p1i_7MY-14" value="&lt;font style=&quot;&quot;&gt;&lt;font color=&quot;#000000&quot; style=&quot;font-size: 10px;&quot;&gt;Stream 2 - Ad Conversions Stream&lt;/font&gt;&lt;br&gt;&lt;/font&gt;" style="sketch=0;outlineConnect=0;fontColor=#EEEEEE;strokeColor=#BAC8D3;fillColor=#09555B;dashed=0;verticalLabelPosition=middle;verticalAlign=bottom;align=center;html=1;whiteSpace=wrap;fontSize=10;fontStyle=1;spacing=3;shape=mxgraph.aws4.productIcon;prIcon=mxgraph.aws4.kinesis_data_streams;labelBackgroundColor=none;" vertex="1" parent="1">
          <mxGeometry x="140" y="200" width="80" height="120" as="geometry" />
        </mxCell>
        <mxCell id="rWK_Hk4ZgVPo0p1i_7MY-24" style="edgeStyle=orthogonalEdgeStyle;rounded=0;orthogonalLoop=1;jettySize=auto;html=1;strokeColor=#0B4D6A;labelBackgroundColor=none;fontColor=default;" edge="1" parent="1" source="rWK_Hk4ZgVPo0p1i_7MY-15" target="rWK_Hk4ZgVPo0p1i_7MY-22">
          <mxGeometry relative="1" as="geometry" />
        </mxCell>
        <mxCell id="rWK_Hk4ZgVPo0p1i_7MY-25" style="edgeStyle=orthogonalEdgeStyle;rounded=0;orthogonalLoop=1;jettySize=auto;html=1;strokeColor=#0B4D6A;labelBackgroundColor=none;fontColor=default;" edge="1" parent="1" source="rWK_Hk4ZgVPo0p1i_7MY-15" target="rWK_Hk4ZgVPo0p1i_7MY-23">
          <mxGeometry relative="1" as="geometry" />
        </mxCell>
        <mxCell id="rWK_Hk4ZgVPo0p1i_7MY-15" value="&lt;font color=&quot;#000000&quot; style=&quot;font-size: 14px;&quot;&gt;Amazon S3&lt;/font&gt;" style="sketch=0;outlineConnect=0;fontColor=#EEEEEE;strokeColor=#BAC8D3;fillColor=#09555B;dashed=0;verticalLabelPosition=middle;verticalAlign=bottom;align=center;html=1;whiteSpace=wrap;fontSize=10;fontStyle=1;spacing=3;shape=mxgraph.aws4.productIcon;prIcon=mxgraph.aws4.s3;labelBackgroundColor=none;" vertex="1" parent="1">
          <mxGeometry x="310" y="100" width="100" height="130" as="geometry" />
        </mxCell>
        <mxCell id="rWK_Hk4ZgVPo0p1i_7MY-29" style="edgeStyle=orthogonalEdgeStyle;rounded=0;orthogonalLoop=1;jettySize=auto;html=1;strokeColor=#0B4D6A;labelBackgroundColor=none;fontColor=default;" edge="1" parent="1" source="rWK_Hk4ZgVPo0p1i_7MY-22" target="rWK_Hk4ZgVPo0p1i_7MY-27">
          <mxGeometry relative="1" as="geometry" />
        </mxCell>
        <mxCell id="rWK_Hk4ZgVPo0p1i_7MY-22" value="&lt;font color=&quot;#000000&quot; style=&quot;font-size: 12px;&quot;&gt;AWS Lambda&lt;/font&gt;" style="sketch=0;outlineConnect=0;fontColor=#EEEEEE;strokeColor=#BAC8D3;fillColor=#09555B;dashed=0;verticalLabelPosition=middle;verticalAlign=bottom;align=center;html=1;whiteSpace=wrap;fontSize=10;fontStyle=1;spacing=3;shape=mxgraph.aws4.productIcon;prIcon=mxgraph.aws4.lambda;labelBackgroundColor=none;" vertex="1" parent="1">
          <mxGeometry x="480" y="20" width="80" height="120" as="geometry" />
        </mxCell>
        <mxCell id="rWK_Hk4ZgVPo0p1i_7MY-30" style="edgeStyle=orthogonalEdgeStyle;rounded=0;orthogonalLoop=1;jettySize=auto;html=1;strokeColor=#0B4D6A;labelBackgroundColor=none;fontColor=default;" edge="1" parent="1" source="rWK_Hk4ZgVPo0p1i_7MY-23">
          <mxGeometry relative="1" as="geometry">
            <mxPoint x="640" y="260" as="targetPoint" />
          </mxGeometry>
        </mxCell>
        <mxCell id="rWK_Hk4ZgVPo0p1i_7MY-23" value="&lt;font color=&quot;#000000&quot; style=&quot;font-size: 12px;&quot;&gt;AWS Lambda&lt;/font&gt;" style="sketch=0;outlineConnect=0;fontColor=#EEEEEE;strokeColor=#BAC8D3;fillColor=#09555B;dashed=0;verticalLabelPosition=middle;verticalAlign=bottom;align=center;html=1;whiteSpace=wrap;fontSize=10;fontStyle=1;spacing=3;shape=mxgraph.aws4.productIcon;prIcon=mxgraph.aws4.lambda;labelBackgroundColor=none;" vertex="1" parent="1">
          <mxGeometry x="480" y="200" width="80" height="120" as="geometry" />
        </mxCell>
        <mxCell id="rWK_Hk4ZgVPo0p1i_7MY-27" value="&lt;font color=&quot;#000000&quot;&gt;Amazon Kinesis Data Streams -&amp;nbsp;Ad Click Stream&lt;/font&gt;" style="sketch=0;outlineConnect=0;fontColor=#EEEEEE;strokeColor=#BAC8D3;fillColor=#09555B;dashed=0;verticalLabelPosition=middle;verticalAlign=bottom;align=center;html=1;whiteSpace=wrap;fontSize=10;fontStyle=1;spacing=3;shape=mxgraph.aws4.productIcon;prIcon=mxgraph.aws4.kinesis_data_streams;labelBackgroundColor=none;" vertex="1" parent="1">
          <mxGeometry x="640" y="12.5" width="90" height="135" as="geometry" />
        </mxCell>
        <mxCell id="rWK_Hk4ZgVPo0p1i_7MY-31" value="&lt;font color=&quot;#000000&quot;&gt;Amazon Kinesis Data Streams -&amp;nbsp;Ad Conversions Stream&amp;nbsp;&lt;/font&gt;" style="sketch=0;outlineConnect=0;fontColor=#EEEEEE;strokeColor=#BAC8D3;fillColor=#09555B;dashed=0;verticalLabelPosition=middle;verticalAlign=bottom;align=center;html=1;whiteSpace=wrap;fontSize=10;fontStyle=1;spacing=3;shape=mxgraph.aws4.productIcon;prIcon=mxgraph.aws4.kinesis_data_streams;labelBackgroundColor=none;" vertex="1" parent="1">
          <mxGeometry x="640" y="200" width="90" height="140" as="geometry" />
        </mxCell>
        <mxCell id="rWK_Hk4ZgVPo0p1i_7MY-32" value="AWS Glue" style="sketch=0;outlineConnect=0;fontColor=#232F3E;gradientColor=none;strokeColor=#ffffff;fillColor=#232F3E;dashed=0;verticalLabelPosition=middle;verticalAlign=bottom;align=center;html=1;whiteSpace=wrap;fontSize=10;fontStyle=1;spacing=3;shape=mxgraph.aws4.productIcon;prIcon=mxgraph.aws4.glue;" vertex="1" parent="1">
          <mxGeometry x="830" y="130" width="80" height="100" as="geometry" />
        </mxCell>
      </root>
    </mxGraphModel>
  </diagram>
</mxfile>
